<svg width="102" height="45" viewBox="0 0 102 45" fill="none" xmlns="http://www.w3.org/2000/svg">
<g id="logo">
<path id="Exclusion 1" d="M19.5315 44.6322C16.9539 44.6343 14.4023 44.0671 12.0294 42.9645C9.65639 41.862 7.51068 40.2468 5.72046 38.2153C2.05123 34.06 0 28.5052 0 22.7241C0 16.943 2.05123 11.3882 5.72046 7.23287C7.51185 5.20314 9.65779 3.58902 12.0305 2.48664C14.4032 1.38427 16.9542 0.816162 19.5315 0.816162C22.1088 0.816162 24.6597 1.38427 27.0324 2.48664C29.4051 3.58902 31.5511 5.20314 33.3425 7.23287C37.0117 11.3882 39.0629 16.943 39.0629 22.7241C39.0629 28.5052 37.0117 34.06 33.3425 38.2153C31.5523 40.2468 29.4066 41.8621 27.0336 42.9646C24.6606 44.0672 22.1091 44.6343 19.5315 44.6322ZM23.2775 32.8391V36.1253C23.5055 36.1768 23.7377 36.2028 23.9705 36.2031C24.6318 36.2203 25.2911 36.1151 25.9205 35.892C26.4464 35.6871 26.9209 35.3493 27.3055 34.9061C27.7352 34.3956 28.0895 33.8146 28.3555 33.1841C28.6645 32.482 28.9905 31.6407 29.3245 30.6855L34.0105 16.9634H30.4795L27.5945 26.1034L24.5475 16.9634H20.6225L25.7935 30.6559C25.6099 31.2753 25.3455 31.8623 25.0085 32.3987C24.8843 32.5676 24.7255 32.7019 24.5449 32.7906C24.3643 32.8793 24.1671 32.92 23.9695 32.9092C23.7367 32.909 23.5045 32.8829 23.2765 32.8314L23.2775 32.8391ZM11.0895 28.8266C11.2568 29.1207 11.4537 29.3934 11.6765 29.6394C11.9267 29.9171 12.2099 30.1565 12.5185 30.3514C12.8592 30.566 13.2239 30.7313 13.6035 30.8433C14.0252 30.9663 14.46 31.0271 14.8965 31.024C15.64 31.035 16.3779 30.8807 17.0655 30.5705C17.706 30.2726 18.2748 29.8163 18.7275 29.2374C19.2171 28.5926 19.5788 27.8431 19.7895 27.0367C20.0499 26.035 20.1742 24.9967 20.1585 23.9553V23.4372C20.2784 21.6192 19.805 19.8136 18.8225 18.3425C18.3261 17.7554 17.7163 17.2971 17.0376 17.0011C16.3589 16.7051 15.6284 16.5788 14.8995 16.6315C14.2003 16.6298 13.5116 16.8182 12.8952 17.1797C12.2788 17.5412 11.7539 18.0645 11.3675 18.7029V12.5686H7.81246V30.6899H11.0895V28.8277V28.8266ZM14.0445 27.74C13.6895 27.7468 13.3372 27.6724 13.01 27.5215C12.6828 27.3706 12.388 27.1465 12.1445 26.8636C11.5955 26.1702 11.3178 25.2679 11.3715 24.3519V23.0527C11.3432 22.6245 11.3975 22.1946 11.5308 21.791C11.6642 21.3873 11.8736 21.0189 12.1455 20.7097C12.6606 20.185 13.3423 19.9012 14.0455 19.9188C14.384 19.9069 14.7206 19.9788 15.0303 20.129C15.34 20.2791 15.6149 20.5038 15.8345 20.7863C16.3405 21.5552 16.5818 22.4954 16.5155 23.4405V23.9586C16.5792 24.9588 16.3326 25.9532 15.8155 26.7804C15.6096 27.0812 15.342 27.3246 15.0344 27.4911C14.7267 27.6576 14.3876 27.7425 14.0445 27.7389V27.74Z" fill="#01BAB3"/>
<path id="Path 5" d="M49.7175 31.8161C48.5831 31.9252 47.4532 31.5592 46.5555 30.7919C46.1862 30.3245 45.9077 29.7797 45.737 29.1906C45.5662 28.6015 45.5069 27.9805 45.5625 27.3654V21.0438H43.9465V18.2626H45.5625V15.2283H48.6095V18.2626H51.5645V21.0438H48.6095V26.8593C48.5625 27.4348 48.6969 28.0104 48.9905 28.4904C49.1813 28.6788 49.4068 28.8203 49.6517 28.9053C49.8967 28.9904 50.1554 29.017 50.4105 28.9833C50.8718 28.9833 51.3335 28.9581 51.7955 28.9078V31.689C51.5028 31.7226 51.1988 31.7522 50.8835 31.7777C50.5681 31.8033 50.1795 31.8161 49.7175 31.8161ZM53.9875 18.2637H56.8035V20.2354C56.925 19.9412 57.0803 19.6651 57.2655 19.4139C57.4695 19.1319 57.7108 18.8849 57.9815 18.681C58.2644 18.4671 58.5708 18.293 58.8935 18.1629C59.2461 18.0236 59.6187 17.955 59.9935 17.9603C60.2442 17.9573 60.4949 17.9741 60.7435 18.0107C60.8801 18.0258 61.0145 18.0597 61.1435 18.1114V21.069C60.9519 20.9894 60.755 20.926 60.5545 20.8795C60.2389 20.8128 59.9178 20.783 59.5965 20.7908C59.1918 20.7782 58.7897 20.8647 58.4195 21.0438C58.1104 21.199 57.837 21.428 57.6195 21.7142C57.4081 22.0002 57.2547 22.3321 57.1695 22.688C57.0763 23.0673 57.0299 23.4586 57.0315 23.8514V31.6649H53.9845L53.9875 18.2637ZM68.2985 31.9639C67.4942 31.9685 66.6948 31.8275 65.9325 31.5466C65.2076 31.2823 64.5428 30.8513 63.9825 30.2825C63.4053 29.6804 62.956 28.9467 62.6665 28.1333C62.3262 27.1618 62.1615 26.1272 62.1815 25.087V24.5809C62.163 23.5876 62.3209 22.5999 62.6465 21.6726C62.9264 20.8919 63.36 20.1884 63.9165 19.6121C64.4561 19.0637 65.0925 18.6421 65.7865 18.3732C66.5203 18.0903 67.2935 17.949 68.0715 17.9559C68.8673 17.894 69.6662 18.0095 70.4201 18.2955C71.174 18.5815 71.8671 19.032 72.4575 19.6198C72.9866 20.2728 73.3915 21.0348 73.6486 21.8612C73.9056 22.6877 74.0096 23.562 73.9545 24.433V25.845H65.2985C65.3016 26.3732 65.3956 26.8961 65.5755 27.3862C65.725 27.7881 65.9534 28.149 66.2445 28.4433C66.5214 28.7152 66.8479 28.9195 67.2025 29.0425C67.5577 29.1688 67.9289 29.2331 68.3025 29.2331C68.9138 29.2727 69.5243 29.1411 70.0765 28.8508C70.4735 28.6001 70.7762 28.2029 70.9305 27.7302H73.7235C73.6346 28.3674 73.4267 28.9776 73.1129 29.5229C72.7991 30.0681 72.386 30.5367 71.8995 30.8992C70.8238 31.6417 69.5691 32.0127 68.2985 31.9639ZM68.1835 20.6867C67.8289 20.6867 67.4759 20.7375 67.1335 20.8379C66.8034 20.9305 66.4934 21.094 66.2215 21.3188C65.947 21.5556 65.7259 21.8584 65.5755 22.2039C65.3958 22.6233 65.3013 23.0803 65.2985 23.5436H70.9985C70.9978 23.0673 70.9157 22.5955 70.7565 22.1524C70.6276 21.8068 70.4212 21.5024 70.1565 21.2673C69.8951 21.0444 69.5913 20.889 69.2675 20.8127C68.9116 20.7266 68.548 20.6843 68.1835 20.6867ZM76.1465 18.2593H78.9635V20.231C79.301 19.5728 79.7907 19.0235 80.3835 18.6383C81.1879 18.1419 82.1043 17.9052 83.0265 17.9559C83.6357 17.9028 84.2483 17.9926 84.8234 18.2192C85.3984 18.4459 85.9228 18.8042 86.3615 19.2704C87.1527 20.3366 87.5458 21.6917 87.4615 23.0627V31.6594H84.4105V23.8196C84.4647 23.0136 84.2657 22.2116 83.8465 21.5466C83.5979 21.2699 83.2955 21.058 82.9619 20.9268C82.6283 20.7956 82.272 20.7483 81.9195 20.7886C81.4924 20.7748 81.0676 20.8611 80.6735 21.0416C80.3519 21.1965 80.0645 21.4251 79.8305 21.712C79.6073 21.9901 79.4418 22.3178 79.3455 22.6727C79.244 23.0459 79.1935 23.4335 79.1955 23.8229V31.6616H76.1465V18.2593ZM94.7285 31.9639C94.0196 32.0019 93.3118 31.8687 92.6551 31.5738C91.9984 31.2789 91.409 30.8294 90.9285 30.2573C89.8966 28.7814 89.3981 26.9405 89.5285 25.087V24.5809C89.4149 22.8023 89.9176 21.0421 90.9365 19.6516C91.4175 19.0852 92.0053 18.6402 92.6591 18.3476C93.3129 18.055 94.017 17.9217 94.7225 17.957C95.4905 17.9411 96.249 18.1458 96.9225 18.5507C97.5445 18.9304 98.0778 19.4628 98.4805 20.1062V13.9609H101.527V31.6605H98.6985V29.6888C98.3457 30.3461 97.846 30.8942 97.2465 31.2815C96.4831 31.7657 95.6099 32.0024 94.7285 31.9639ZM95.4465 29.1323C96.2565 29.169 97.0471 28.8541 97.6465 28.256C97.9481 27.8997 98.1788 27.4786 98.3239 27.0194C98.469 26.5602 98.5254 26.073 98.4895 25.5887V24.0748C98.5207 23.6192 98.4592 23.1617 98.3095 22.7353C98.1597 22.3089 97.9254 21.9243 97.6235 21.6091C97.0144 21.0488 96.2373 20.756 95.4425 20.7875C95.0613 20.7739 94.682 20.8517 94.3311 21.0156C93.9803 21.1795 93.6664 21.4254 93.4115 21.7361C92.8347 22.545 92.5548 23.5608 92.6265 24.5842V25.0903C92.5485 26.1796 92.8358 27.2626 93.4345 28.1366C93.6814 28.4556 93.9901 28.7104 94.3381 28.8826C94.6861 29.0549 95.0647 29.1401 95.4465 29.1323Z" fill="black" fill-opacity="0.85"/>
</g>
</svg>
